<svg version="1.1" id="Layer_1" xmlns="http://www.w3.org/2000/svg" xmlns:xlink="http://www.w3.org/1999/xlink" x="0px" y="0px"
	 width="100%" viewBox="0 0 1024 512" enable-background="new 0 0 1024 512" xml:space="preserve">
<path fill="#000000" opacity="1.000000" stroke="none" 
	d="
M125.499664,386.529358 
	C116.502831,380.539490 109.299019,373.255463 103.459595,364.605255 
	C103.087456,364.053955 102.764404,363.430176 102.276344,363.002289 
	C91.438263,353.500214 88.952148,339.840912 84.627136,327.155334 
	C83.668999,324.345032 82.368843,321.578217 81.793999,318.691284 
	C78.852997,303.921356 76.706429,289.062469 78.436157,273.936249 
	C78.590492,272.586609 78.806267,271.258789 78.199196,270.019073 
	C77.070633,267.714447 76.869530,265.701294 79.012733,263.724976 
	C79.761238,263.034760 80.215561,261.589752 80.156181,260.525604 
	C79.442055,247.727631 82.824890,235.833008 87.110352,223.923508 
	C88.562035,219.889191 88.623871,215.132217 90.609100,211.134872 
	C92.825821,206.671402 92.867889,201.250458 96.708275,197.504776 
	C97.231155,196.994781 97.585236,195.993362 97.527046,195.258316 
	C97.181839,190.897781 99.232262,187.429718 102.132484,184.733917 
	C108.879463,178.462509 113.202461,170.277847 118.485634,163.026703 
	C124.646927,154.570312 132.760498,148.326889 139.162994,140.384705 
	C145.045288,133.087845 153.876282,129.544357 160.344025,122.851784 
	C163.968002,119.101814 169.956360,117.543961 175.014587,115.303589 
	C178.757324,113.645866 182.044006,111.234947 185.789169,109.516762 
	C191.135895,107.063812 196.489456,105.012398 202.213120,103.792610 
	C203.316986,103.557365 204.532196,103.206993 205.377838,102.518761 
	C207.798599,100.548676 210.121231,99.416328 213.548828,100.024017 
	C216.503174,100.547806 219.199539,98.637596 221.514740,96.189972 
	C224.466827,99.389381 228.212036,98.482338 231.334900,97.726540 
	C252.048157,92.713486 271.100189,97.551224 289.509674,106.835388 
	C289.657532,106.909943 289.780151,107.073830 289.930542,107.098480 
	C298.861237,108.561592 304.428162,115.607590 311.521881,120.115311 
	C312.797974,120.926201 314.042206,121.898888 314.185852,123.548599 
	C315.024933,133.182419 319.338470,142.233673 319.656433,151.814896 
	C319.957642,160.891617 321.484344,169.824066 321.774506,178.897598 
	C321.944946,184.227829 324.061523,189.507004 324.829956,194.948853 
	C326.149750,204.295197 327.244019,213.700790 328.781921,222.976364 
	C331.346313,238.442917 329.706818,254.188477 332.882385,269.545990 
	C333.896210,274.448883 332.563904,279.411407 332.731659,284.406769 
	C333.260620,300.158875 333.078674,315.942017 332.849335,331.708435 
	C332.772308,337.002289 331.726166,342.281799 331.126831,347.568329 
	C330.941772,349.200562 330.256134,350.563263 328.520538,350.767609 
	C326.766937,350.974030 325.666443,349.711670 325.218689,348.236053 
	C324.501190,345.871521 323.956024,343.435120 323.574127,340.992157 
	C322.519836,334.247467 319.049896,327.899567 321.041199,320.622406 
	C321.938965,317.341461 320.172546,314.092316 317.573273,311.678650 
	C312.999084,307.431213 310.211761,302.174774 307.351288,296.622955 
	C303.015717,288.208038 299.464722,279.112213 291.023010,273.168060 
	C284.379486,268.490082 280.093842,261.112518 273.745087,255.904785 
	C265.505035,249.145706 256.413818,243.585526 247.858398,237.367218 
	C239.222473,231.090378 230.349823,225.462723 221.167679,220.144135 
	C212.644714,215.207352 203.455353,211.826172 194.380997,208.177719 
	C191.428879,206.990768 188.849243,204.445572 185.194626,204.967361 
	C187.230850,216.120392 188.041946,227.231781 190.000641,238.031403 
	C192.700272,252.916290 194.419281,267.901703 195.588806,282.853546 
	C196.887604,299.458466 200.756897,316.109558 197.296783,332.905853 
	C196.627258,336.155884 195.996735,339.457031 194.864182,342.557800 
	C193.419724,346.512482 189.767166,346.539703 186.450531,346.007996 
	C182.152512,345.319000 179.501038,341.065063 180.335602,336.585541 
	C181.838287,328.519806 183.449402,320.334290 182.612930,312.216431 
	C181.473373,301.157166 180.859329,290.008575 180.573334,278.996277 
	C180.324356,269.409729 179.307602,259.828369 178.318634,250.461060 
	C176.838257,236.439056 175.589966,222.092087 170.552277,208.611343 
	C169.911774,206.897400 169.343002,205.284576 169.623810,203.314697 
	C170.645645,196.146240 169.060211,194.422958 160.635223,193.637054 
	C161.828232,195.841293 163.018967,197.713165 163.889053,199.723801 
	C165.286407,202.952805 163.781479,204.133026 160.650177,203.617874 
	C159.364212,203.406311 158.006470,202.975357 156.927170,202.268768 
	C149.550461,197.439453 144.421402,191.017731 143.131256,182.027695 
	C142.684860,178.917084 146.256882,174.299210 149.529541,174.279770 
	C155.911514,174.241837 162.074310,175.292191 167.151184,179.693771 
	C168.153152,180.562485 169.133316,181.991135 170.242325,182.117279 
	C179.426514,183.161972 186.599152,189.081100 194.961639,192.072693 
	C200.462189,194.040451 204.654755,198.282089 210.248932,200.358871 
	C229.249786,207.412766 246.470810,217.890533 262.216675,230.491028 
	C271.005249,237.524033 280.336487,244.049057 287.921265,252.535080 
	C288.253387,252.906677 288.566345,253.416519 288.992035,253.565643 
	C299.966003,257.409821 304.626984,266.932648 309.603241,276.241791 
	C311.827423,280.402557 315.780029,283.703247 315.552338,289.049988 
	C315.511780,290.002411 316.458496,290.790924 318.492462,291.056519 
	C319.467255,285.561157 318.889923,280.073364 318.484344,274.563538 
	C316.978180,254.102509 313.276184,233.880264 312.059052,213.364883 
	C311.727814,207.781372 310.634155,201.959457 309.277313,196.350784 
	C308.653534,193.772217 307.788574,191.103043 307.927124,188.522964 
	C308.149628,184.380295 306.523590,180.731522 303.436523,179.148941 
	C300.705353,177.748810 297.093994,179.916122 294.359924,181.625229 
	C291.758789,183.251190 289.559082,185.519257 287.339874,187.373795 
	C285.797516,187.068558 285.272034,186.056030 285.486725,185.094391 
	C287.127960,177.743546 286.822021,169.534210 294.447296,164.767670 
	C296.217010,163.661438 296.306763,161.747955 296.712646,159.676193 
	C297.725281,154.506958 294.854370,150.150452 294.710419,145.322540 
	C294.574432,140.761444 291.942413,136.951691 288.778015,134.762039 
	C283.273438,130.953049 279.384949,125.304276 273.379547,122.169762 
	C271.014862,120.935524 268.752655,118.932175 266.171722,118.915283 
	C260.922302,118.880928 259.971130,116.172241 261.025726,111.787506 
	C249.478836,113.839523 238.282425,116.230431 226.755707,111.812691 
	C226.020798,115.204643 226.264557,119.860146 220.554840,118.823090 
	C217.009338,118.179115 213.010651,121.506317 209.850327,117.017769 
	C207.521790,119.800934 204.864868,120.664543 201.715530,119.592209 
	C201.249863,119.433670 200.627396,119.202271 200.256088,119.379288 
	C193.526184,122.587563 185.868256,124.295593 180.713928,130.064850 
	C179.435532,131.495773 178.463257,132.067566 176.858643,132.316223 
	C173.869431,132.779388 171.361725,133.703140 169.097565,136.185852 
	C166.760223,138.748779 164.229355,140.716904 165.863602,143.832565 
	C147.055237,149.811096 137.762863,164.478424 127.712097,180.165588 
	C124.969185,180.208359 123.064095,181.873260 125.135178,186.353775 
	C126.112762,188.468643 124.442749,189.470032 122.729942,189.856094 
	C120.431732,190.374084 118.914742,191.592575 117.792091,193.647888 
	C112.473877,203.384369 107.865692,213.297241 104.753204,224.097855 
	C101.873581,234.090378 99.425095,244.129410 97.257614,254.269211 
	C96.839836,256.223663 96.310692,258.171021 96.781296,260.191620 
	C97.763802,264.410126 97.099770,268.390686 95.216690,272.253052 
	C94.720688,273.270416 94.010933,274.699127 94.362862,275.531616 
	C96.872467,281.468170 94.258339,287.518616 95.060493,293.593109 
	C96.817551,306.898712 99.788651,319.897217 103.432449,332.719299 
	C106.594704,343.846893 112.171211,353.890167 121.495697,361.207062 
	C124.162659,363.299805 124.680878,366.566162 127.089058,368.728699 
	C138.801010,379.246277 151.220749,388.643341 166.313019,393.805145 
	C185.654785,400.420410 205.599335,401.411774 225.864471,400.542969 
	C237.892715,400.027283 249.780396,398.362335 261.009399,394.704437 
	C276.401398,389.690399 292.141510,384.135071 298.783722,366.761261 
	C299.599060,364.628601 301.154144,362.764252 302.458099,360.837616 
	C303.432770,359.397522 304.152222,357.989502 303.467163,356.196350 
	C302.553101,353.803680 302.128265,351.304901 305.513062,350.808350 
	C308.634491,350.350464 311.130951,351.928009 312.064728,354.980133 
	C312.907532,357.734894 312.577148,360.622314 311.388275,363.295685 
	C308.483276,369.828003 304.984100,375.957916 300.024811,381.234131 
	C298.201843,383.173615 294.805664,384.426544 296.277008,388.493835 
	C296.706055,389.679840 294.826447,391.331848 293.428955,392.304108 
	C284.614014,398.436768 275.154663,403.061676 264.653748,405.710266 
	C253.071442,408.631592 241.506058,411.420441 229.594635,412.719269 
	C224.930923,413.227783 220.272186,412.703888 215.700073,412.627136 
	C209.091980,412.516205 202.708389,414.340240 195.990341,413.442200 
	C178.607178,411.118500 161.658798,407.311462 145.739456,399.928925 
	C138.520523,396.581146 132.180099,391.538635 125.499664,386.529358 
z"/>
<path fill="#000000" opacity="1.000000" stroke="none" 
	d="
M652.377441,204.318268 
	C647.699524,212.013382 644.711365,220.437744 637.569458,226.047943 
	C634.391968,228.543945 632.640747,232.131744 630.433533,235.454330 
	C626.606934,241.214386 629.221924,245.293823 632.002136,250.040390 
	C636.167358,257.151520 640.395935,264.304749 641.729797,272.665649 
	C644.520081,290.155884 637.672546,298.478668 624.150024,306.864044 
	C619.002258,310.056183 613.579773,312.138611 607.645813,313.503815 
	C601.203796,314.985840 596.665222,312.793549 592.820801,308.087494 
	C591.742981,306.768066 590.542908,305.755341 589.086731,304.873047 
	C586.099548,303.063080 583.980103,300.656830 584.388916,296.765045 
	C584.488220,295.819214 584.191589,294.781952 583.882507,293.851349 
	C582.208191,288.809875 582.187134,288.816864 585.402039,285.201660 
	C584.674316,283.833405 583.909302,282.395111 582.987122,280.661285 
	C586.939819,277.377808 588.417603,272.601196 590.472961,268.162262 
	C591.402771,266.154022 592.576294,264.712280 594.689148,263.572571 
	C599.061523,261.214111 599.480652,255.436813 603.407166,252.513092 
	C603.776062,252.238419 603.825623,251.535660 604.194214,251.259583 
	C611.766724,245.587265 608.959351,238.911819 604.813354,233.442673 
	C599.598816,226.564026 596.988953,218.482895 595.837769,210.757904 
	C594.116699,199.208405 593.460693,186.879623 601.953369,176.681351 
	C604.371094,173.778015 607.158447,171.587479 610.785706,170.447449 
	C616.077393,168.784317 621.593811,168.219498 627.027954,168.127228 
	C635.566956,167.982239 639.744080,174.983276 644.784790,180.334610 
	C645.885315,181.502960 645.971985,183.469620 648.032837,184.588913 
	C652.738037,182.543427 653.526672,177.175385 656.278320,173.484695 
	C659.229370,169.526733 661.177979,164.833542 663.702332,160.542557 
	C667.879700,153.441711 666.912415,146.095123 664.390442,138.937164 
	C661.570557,130.933609 660.152222,122.681480 658.936340,114.368973 
	C658.552795,111.746841 658.931519,109.031311 656.641113,106.999847 
	C655.727295,106.189354 655.355591,104.875984 655.722900,103.761818 
	C657.867798,97.255196 656.879883,90.574547 656.735413,83.990967 
	C656.577148,76.776878 657.414307,69.720619 658.563782,62.649632 
	C659.210938,58.668976 661.693909,55.796009 664.967102,54.280174 
	C667.933228,52.906559 672.078979,54.101997 673.674377,56.426731 
	C676.735168,60.886627 681.012085,64.694107 682.504089,70.148033 
	C684.873718,78.810387 687.342834,87.417625 687.300537,96.575249 
	C687.251465,107.194954 689.168579,117.905090 686.866577,128.406006 
	C684.902344,137.365906 682.966675,146.298111 683.214233,155.475632 
	C683.455017,164.404434 684.464355,173.273544 687.630676,181.765396 
	C690.043030,188.234833 689.974670,195.229202 690.385498,201.886078 
	C691.165161,214.518021 692.447937,226.947754 695.865173,239.143661 
	C697.009766,243.228424 697.398621,247.360474 699.925659,251.223389 
	C701.270447,253.279068 698.435303,257.481140 701.518372,260.188599 
	C703.520447,259.058899 703.093506,257.087799 703.283752,255.623840 
	C704.106750,249.292908 707.087646,244.457550 712.303162,240.825638 
	C713.482483,240.004364 714.270630,238.602081 715.188721,237.428009 
	C720.598816,230.509674 726.813721,230.016891 735.096619,232.540436 
	C746.882446,236.131195 757.213562,242.848343 769.188171,246.228668 
	C779.948853,249.266281 791.040344,251.236267 801.582520,255.106979 
	C805.399414,256.508423 809.152588,255.392212 812.763306,253.962280 
	C816.847412,252.344864 821.103821,251.743881 825.456604,251.632904 
	C828.729919,251.549423 831.472290,252.898239 832.934448,255.688812 
	C834.350403,258.391205 834.468262,261.383392 832.672974,264.263428 
	C829.647400,269.117218 825.834534,270.137451 820.273743,269.520172 
	C812.883789,268.699829 805.387573,268.809082 797.894897,269.172699 
	C790.844482,269.514862 784.815369,273.407227 777.826782,274.419312 
	C776.126526,269.327728 782.179626,270.335968 782.500244,266.535553 
	C780.905701,264.905090 778.012695,264.588867 775.454041,263.929871 
	C764.759033,261.175262 753.748718,259.002197 744.086365,253.671631 
	C740.146423,251.498047 735.235168,251.986496 731.974365,248.208435 
	C730.184021,246.134094 728.211670,247.774353 727.508057,249.950699 
	C726.795715,252.153992 726.474304,254.492905 726.088379,256.790344 
	C725.490112,260.351776 724.354675,264.240295 721.441589,265.917175 
	C713.683716,270.383057 713.661621,278.231506 711.825012,285.317474 
	C710.931824,288.763824 709.698059,291.297943 705.804626,292.370300 
	C701.655823,293.513000 699.061951,292.250183 697.087341,288.771820 
	C691.100037,278.225098 685.982971,267.243042 682.893005,255.529633 
	C680.610901,246.878754 678.764099,238.079926 676.877014,229.333527 
	C675.103088,221.111786 673.852600,212.688431 673.512573,204.174408 
	C673.215210,196.727951 672.293518,189.303299 671.528381,181.881317 
	C671.377380,180.417084 670.628357,179.040115 668.999207,177.727051 
	C661.931458,185.517014 658.540100,195.617493 652.377441,204.318268 
M599.751221,293.291229 
	C600.439392,296.236969 601.215210,299.436157 603.843323,301.005341 
	C606.595337,302.648438 607.382812,298.727936 609.452271,298.030273 
	C610.073242,297.820984 610.767090,297.830841 611.392212,297.630280 
	C621.115173,294.510712 627.997864,283.467407 625.610413,274.484039 
	C624.851868,271.629669 623.524414,268.900604 622.238708,266.218994 
	C620.722107,263.055695 620.249756,257.872620 616.007629,258.236420 
	C611.967041,258.582977 610.878723,263.438782 609.954895,267.104675 
	C607.688293,276.099182 605.184265,284.960693 599.751221,293.291229 
M630.448486,190.224014 
	C627.567566,185.239059 622.736816,187.080795 618.473511,186.694153 
	C613.194214,186.215393 612.172974,189.795624 611.311646,193.663544 
	C611.168945,194.304398 611.144531,194.994080 611.193237,195.651718 
	C611.882324,204.949249 614.019897,213.883087 617.949951,222.363052 
	C618.758606,224.107834 619.860962,226.172180 621.962219,224.654404 
	C627.037720,220.988327 631.429382,215.915131 632.248718,209.998245 
	C633.096985,203.872345 632.489319,197.233383 630.448486,190.224014 
M671.902771,99.535950 
	C672.375793,101.668381 671.948608,104.122421 674.549683,106.463799 
	C676.027832,98.120224 673.426514,91.078331 672.446045,83.859108 
	C671.827881,83.884460 671.209717,83.909813 670.591553,83.935165 
	C670.967590,88.854935 671.343628,93.774696 671.902771,99.535950 
z"/>
<path fill="#000000" opacity="1.000000" stroke="none" 
	d="
M279.204468,434.038177 
	C292.875458,431.633148 306.078705,429.028595 319.381958,427.121521 
	C326.887573,426.045563 334.553040,426.140686 342.046417,424.637268 
	C358.130859,421.410248 374.581879,420.499054 390.617065,416.885956 
	C401.116821,414.520172 411.748871,412.883057 422.458160,411.638214 
	C432.174377,410.508850 441.807281,408.679993 451.495819,407.291229 
	C470.863464,404.514984 490.235107,401.803711 509.657227,399.383087 
	C525.767944,397.375092 541.934937,395.546997 558.033875,393.307831 
	C569.687378,391.686951 581.412231,390.084351 593.055054,388.429810 
	C606.945618,386.455780 620.993347,385.837128 634.838074,382.683716 
	C643.812439,380.639709 653.398499,379.862030 662.758484,378.912354 
	C672.686829,377.904999 682.585632,376.494293 692.535400,375.834320 
	C712.783691,374.491241 732.805847,371.243805 752.872314,368.566437 
	C767.002808,366.681122 781.212158,365.264954 795.313293,362.779694 
	C807.323486,360.662964 819.657227,359.609528 831.858887,358.199493 
	C856.797974,355.317627 881.674377,351.915283 906.555237,348.546234 
	C924.503601,346.115936 942.206787,342.201843 960.179565,340.171265 
	C970.440491,339.011993 980.347900,336.723572 990.253540,334.073883 
	C994.690063,332.887115 998.453796,329.661499 1003.513977,330.263550 
	C1008.406677,330.845581 1011.213684,333.246521 1011.206299,337.711395 
	C1011.198792,342.247070 1006.497742,346.839417 1002.666321,347.466187 
	C995.002869,348.719849 987.505554,350.972076 979.850586,352.298035 
	C963.800598,355.078125 947.701782,357.582306 931.605896,360.090179 
	C920.442749,361.829498 909.246765,363.356781 898.073364,365.032166 
	C887.065735,366.682800 875.920776,366.912048 864.914368,368.952728 
	C855.026428,370.786011 844.845642,371.001587 834.812683,372.101379 
	C825.731628,373.096802 816.671021,374.284882 807.610107,375.455658 
	C793.467957,377.282959 779.326599,379.119385 765.197083,381.041473 
	C751.850403,382.857086 738.549377,385.046234 725.173645,386.600861 
	C709.670227,388.402771 694.066528,389.367432 678.582947,391.306946 
	C666.395569,392.833618 654.147949,393.862030 642.034058,396.189606 
	C631.983154,398.120789 621.684998,398.749115 611.507629,400.042694 
	C597.835327,401.780518 584.092651,403.088837 570.606384,406.050079 
	C560.854370,408.191376 550.882568,409.739655 541.076172,410.439240 
	C528.711670,411.321259 516.469116,412.957886 504.174133,414.234344 
	C496.651245,415.015320 489.207886,416.675323 481.676422,417.233368 
	C471.280457,418.003632 461.174561,420.680328 450.750916,421.284607 
	C444.145874,421.667511 437.529175,422.733307 431.046356,424.102081 
	C424.092896,425.570251 417.011597,426.223572 410.111542,427.573883 
	C402.988953,428.967682 395.908417,430.903168 388.691925,431.719543 
	C365.256073,434.370758 342.226990,439.637756 318.763702,442.190948 
	C308.297180,443.329926 297.842834,445.726318 287.474670,447.212402 
	C273.190582,449.259796 260.525482,456.147064 246.382263,458.126953 
	C241.299606,458.838470 236.146225,459.433228 231.080841,459.931183 
	C220.799713,460.941895 210.942413,463.971405 200.859543,465.778442 
	C194.337830,466.947235 187.522629,467.514740 181.008469,469.723999 
	C176.520126,471.246216 170.884491,469.082703 167.785690,465.694885 
	C165.890762,463.623169 166.191696,458.532440 167.073578,455.214050 
	C167.965210,451.859039 170.456940,448.699921 174.962540,448.712494 
	C194.014862,448.765686 212.628357,445.342957 231.375717,442.357300 
	C247.223587,439.833344 262.876495,436.264954 279.204468,434.038177 
z"/>
<path fill="#000000" opacity="1.000000" stroke="none" 
	d="
M401.002075,254.193970 
	C403.212341,253.346725 405.008911,252.802643 406.419739,251.090378 
	C408.722412,248.295807 411.529388,246.626450 414.851715,249.918594 
	C415.078796,250.143600 415.408600,250.311584 415.720520,250.397324 
	C420.713562,251.769669 430.433350,245.177277 429.711975,239.962173 
	C428.205933,229.074585 430.811096,218.176971 428.507935,207.234055 
	C427.426056,202.093796 427.974213,196.367828 427.356781,190.925797 
	C425.809875,177.291565 426.936859,163.461334 424.538879,149.909149 
	C423.771667,145.573120 425.728882,141.629608 424.980560,137.136276 
	C424.206573,132.488663 424.063873,127.647476 422.924194,122.974579 
	C422.542633,121.410088 422.819794,119.766289 424.052673,118.834839 
	C426.092896,117.293442 426.629730,115.170937 427.403931,112.944298 
	C428.501556,109.787766 431.212830,108.196053 434.451233,108.376694 
	C437.594971,108.552040 439.563202,110.634277 440.216156,113.743668 
	C441.617767,120.418213 441.715576,127.163200 442.029602,133.964859 
	C442.418213,142.382751 442.454926,150.863586 443.304932,159.256119 
	C444.093445,167.041061 443.221222,174.795120 443.594879,182.543976 
	C443.965881,190.237305 443.080505,197.997971 446.722595,205.474945 
	C448.058807,208.218155 444.752045,211.979874 444.882233,215.675919 
	C445.209473,224.966492 445.185486,234.269287 445.321259,243.566895 
	C445.354736,245.860245 446.725037,246.936508 448.860199,246.824554 
	C451.003876,246.712173 453.162750,246.433563 455.260590,245.977570 
	C467.260956,243.368973 479.582489,242.916794 491.607758,240.570435 
	C499.399261,239.050156 506.548676,236.670639 511.897766,229.670715 
	C516.856567,223.181412 524.284546,218.522949 528.951782,211.882156 
	C533.900757,204.840591 542.141174,202.935303 547.645203,197.175934 
	C548.536804,196.242966 549.867981,195.747971 550.833740,196.355621 
	C554.897339,198.912308 559.880859,198.657242 563.986389,200.718506 
	C568.301941,202.885193 570.032959,207.789719 570.880066,211.798981 
	C573.264343,223.083740 566.503357,234.491409 555.869629,239.286667 
	C554.209534,240.035309 552.370850,240.748306 551.120972,241.988098 
	C542.840149,250.202118 531.939270,251.437057 521.317688,252.947464 
	C516.966125,253.566269 515.096069,254.810364 515.121460,259.254974 
	C515.151306,264.463287 515.961243,269.557831 517.272888,274.503510 
	C518.446960,278.930084 527.504761,286.114838 534.784546,284.900848 
	C540.920776,283.877533 547.132446,277.786377 546.728210,270.307831 
	C546.389648,264.043610 550.522949,260.309845 551.772522,254.923370 
	C552.591370,255.381775 553.370117,255.675797 553.343262,255.823196 
	C552.430664,260.836823 555.467468,264.980621 556.492859,269.543213 
	C559.372314,282.355713 552.885254,296.564301 540.556152,300.612244 
	C532.757324,303.172821 524.720825,300.932648 517.556702,297.144897 
	C509.687469,292.984283 505.532745,284.854858 499.485962,278.729523 
	C497.359863,276.575775 499.581085,272.519714 498.958496,269.259277 
	C498.412415,266.399445 498.967224,263.303528 499.204926,260.325378 
	C499.682037,254.347382 498.138519,252.778885 492.145630,253.378448 
	C491.484711,253.444580 490.773804,253.414474 490.176666,253.654465 
	C480.092285,257.707611 469.305969,258.441559 458.774048,260.396484 
	C453.855865,261.309418 448.840057,263.121613 446.080475,267.207245 
	C444.163269,270.045715 443.108551,274.047211 443.315887,277.899872 
	C443.891602,288.598816 440.521088,299.201752 442.976959,310.020782 
	C443.901825,314.095276 439.024414,317.511932 435.336731,315.656006 
	C431.631348,313.791168 428.044556,310.807831 427.936829,306.350189 
	C427.664093,295.064087 427.360687,283.746765 428.601013,272.481232 
	C428.943481,269.370605 427.975739,267.463837 424.554077,267.921509 
	C421.530975,268.325867 418.610352,267.511139 415.651855,267.394989 
	C412.898743,270.917175 416.515594,272.695923 418.596619,275.704987 
	C412.962494,276.779419 408.209564,277.635925 403.816345,274.894775 
	C399.520203,272.214203 394.901825,269.604645 393.907684,263.838837 
	C392.564819,256.050262 392.964905,255.460403 401.002075,254.193970 
M543.926331,230.515625 
	C545.132263,229.627609 546.326111,228.722672 547.547180,227.855988 
	C549.005371,226.820938 551.233398,226.023254 550.339844,223.759705 
	C549.383057,221.336014 546.773376,221.618790 545.133362,222.446182 
	C540.710083,224.677795 536.489197,227.326767 532.283569,229.962708 
	C531.168396,230.661697 530.384338,231.960526 531.120728,233.433517 
	C531.863708,234.919571 533.385193,234.994354 534.611023,234.562210 
	C537.577820,233.516373 540.445984,232.190933 543.926331,230.515625 
z"/>
<path fill="#000000" opacity="1.000000" stroke="none" 
	d="
M372.052734,247.153885 
	C372.313721,255.000519 374.963806,261.898163 376.741333,268.952332 
	C378.890411,277.481201 380.605316,286.125397 379.497559,294.788116 
	C378.727570,300.809204 373.710144,304.906799 369.114471,308.628906 
	C367.620850,309.838623 365.486481,309.139343 364.199432,307.545898 
	C362.431519,305.357178 361.847412,303.098694 363.155548,300.200958 
	C366.099884,293.678650 365.571259,284.060913 362.403076,279.233765 
	C361.391205,279.165466 360.877350,279.874268 360.538330,280.618195 
	C359.925568,281.962769 359.134766,282.902130 357.500610,282.512329 
	C355.852509,282.119202 354.994843,281.055176 354.783813,279.362946 
	C354.140350,274.203796 354.602966,269.082855 355.354431,263.987579 
	C356.085724,259.028931 356.491547,254.361923 351.016418,251.475281 
	C348.850128,250.333145 348.557739,248.067169 349.180237,245.758423 
	C349.726196,243.733414 350.937622,242.557266 353.139984,242.812393 
	C355.982666,243.141708 356.563141,241.167252 357.586975,239.114456 
	C358.817505,236.647446 359.514740,232.948029 363.619141,233.706726 
	C367.773590,234.474716 371.324463,235.992416 371.161102,241.298630 
	C371.105865,243.092239 371.707092,244.906052 372.052734,247.153885 
z"/>
<path fill="#000000" opacity="1.000000" stroke="none" 
	d="
M360.775482,186.097153 
	C358.436279,180.928574 355.185699,176.316376 353.787781,171.510818 
	C352.282043,166.334702 349.523041,160.255417 354.034210,154.386078 
	C355.730774,152.178787 355.501129,148.760529 357.984528,146.263748 
	C361.364685,142.865341 363.832642,144.140137 365.659058,146.992142 
	C369.920654,153.646637 374.570251,160.096146 377.516937,167.547211 
	C378.950134,171.171326 378.908844,173.310791 374.202454,173.258255 
	C369.950348,173.210770 369.917419,176.152557 370.555756,179.168549 
	C371.685242,184.505127 371.160950,189.628845 369.142639,194.925980 
	C363.844482,194.314163 362.969025,189.808411 360.775482,186.097153 
z"/>
</svg>